<svg width="158" height="126" viewBox="0 0 158 126" fill="none" xmlns="http://www.w3.org/2000/svg">
<path d="M124.367 32.5833L78.9999 3.09351L33.6324 32.5833L78.9999 62.0693L109.667 42.136V61.3333H117.333V37.1565L124.367 32.5833Z" fill="white"/>
<path d="M52.1666 67.0833V53.0342L79 70.4758L105.833 53.0342V67.0833C105.833 72.7183 101.946 77.1075 97.1968 79.879C92.3515 82.708 85.9076 84.3333 79 84.3333C72.0923 84.3333 65.6523 82.708 60.8031 79.879C56.0536 77.1075 52.1666 72.7183 52.1666 67.0833Z" fill="white"/>
<path d="M17.4531 123.406C10.2969 123.406 6.0625 119.203 6.0625 111.703V111.688C6.0625 104.297 10.3125 100.047 17.25 100.047C22.9062 100.047 27.1562 103.375 27.6094 107.859L27.625 108.016H21.1094L21.0625 107.859C20.6094 106.359 19.1875 105.453 17.2812 105.453C14.4688 105.453 12.8125 107.609 12.8125 111.609V111.625C12.8125 115.719 14.7031 118 17.6094 118C19.7656 118 21.25 116.953 21.4844 115.156L21.5156 114.922H17.5781V110.359H27.8906V113.406C27.8906 119.594 24 123.406 17.4531 123.406ZM40.4375 123.406C34.4844 123.406 30.5156 120.109 30.5156 114.969V100.453H37.1406V114.312C37.1406 116.688 38.2969 118 40.4531 118C42.6094 118 43.7656 116.688 43.7656 114.312V100.453H50.3906V114.969C50.3906 120.078 46.4688 123.406 40.4375 123.406ZM53.5156 123V100.453H63.6719C69.4688 100.453 72.625 103.172 72.625 108.172V108.203C72.625 111.016 71.1875 113.547 69 114.609L73.2812 123H65.875L62.3125 115.594H60.1406V123H53.5156ZM60.1406 110.922H62.9062C64.6875 110.922 65.875 109.812 65.875 108.156V108.125C65.875 106.484 64.6562 105.344 62.9062 105.344H60.1406V110.922ZM85.25 123.406C79.2969 123.406 75.3281 120.109 75.3281 114.969V100.453H81.9531V114.312C81.9531 116.688 83.1094 118 85.2656 118C87.4219 118 88.5781 116.688 88.5781 114.312V100.453H95.2031V114.969C95.2031 120.078 91.2812 123.406 85.25 123.406ZM98.8906 116.531V111.094H109.141V116.531H98.8906ZM120.438 123.406C115.031 123.406 111.578 120.297 111.578 115.062V115.016H117.922V115.047C117.922 116.844 118.875 117.859 120.344 117.859C121.828 117.859 122.594 116.922 122.594 115.125V100.453H129.219V115.172C129.219 120.406 126.031 123.406 120.438 123.406ZM132.703 123V100.453H142.859C148.656 100.453 151.812 103.172 151.812 108.172V108.203C151.812 111.016 150.375 113.547 148.188 114.609L152.469 123H145.062L141.5 115.594H139.328V123H132.703ZM139.328 110.922H142.094C143.875 110.922 145.062 109.812 145.062 108.156V108.125C145.062 106.484 143.844 105.344 142.094 105.344H139.328V110.922Z" fill="white"/>
</svg>
