<svg width="158" height="125" viewBox="0 0 158 125" fill="none" xmlns="http://www.w3.org/2000/svg">
<path d="M124.367 32.5833L78.9999 3.09351L33.6324 32.5833L78.9999 62.0693L109.667 42.136V61.3333H117.333V37.1565L124.367 32.5833Z" fill="#0161C0"/>
<path d="M52.1666 67.0833V53.0342L79 70.4758L105.833 53.0342V67.0833C105.833 72.7183 101.946 77.1075 97.1968 79.879C92.3515 82.708 85.9076 84.3333 79 84.3333C72.0923 84.3333 65.6523 82.708 60.8031 79.879C56.0536 77.1075 52.1666 72.7183 52.1666 67.0833Z" fill="#0161C0"/>
<path d="M17.4531 122.406C10.2969 122.406 6.0625 118.203 6.0625 110.703V110.688C6.0625 103.297 10.3125 99.0469 17.25 99.0469C22.9062 99.0469 27.1562 102.375 27.6094 106.859L27.625 107.016H21.1094L21.0625 106.859C20.6094 105.359 19.1875 104.453 17.2812 104.453C14.4688 104.453 12.8125 106.609 12.8125 110.609V110.625C12.8125 114.719 14.7031 117 17.6094 117C19.7656 117 21.25 115.953 21.4844 114.156L21.5156 113.922H17.5781V109.359H27.8906V112.406C27.8906 118.594 24 122.406 17.4531 122.406ZM40.4375 122.406C34.4844 122.406 30.5156 119.109 30.5156 113.969V99.4531H37.1406V113.312C37.1406 115.688 38.2969 117 40.4531 117C42.6094 117 43.7656 115.688 43.7656 113.312V99.4531H50.3906V113.969C50.3906 119.078 46.4688 122.406 40.4375 122.406ZM53.5156 122V99.4531H63.6719C69.4688 99.4531 72.625 102.172 72.625 107.172V107.203C72.625 110.016 71.1875 112.547 69 113.609L73.2812 122H65.875L62.3125 114.594H60.1406V122H53.5156ZM60.1406 109.922H62.9062C64.6875 109.922 65.875 108.812 65.875 107.156V107.125C65.875 105.484 64.6562 104.344 62.9062 104.344H60.1406V109.922ZM85.25 122.406C79.2969 122.406 75.3281 119.109 75.3281 113.969V99.4531H81.9531V113.312C81.9531 115.688 83.1094 117 85.2656 117C87.4219 117 88.5781 115.688 88.5781 113.312V99.4531H95.2031V113.969C95.2031 119.078 91.2812 122.406 85.25 122.406ZM98.8906 115.531V110.094H109.141V115.531H98.8906ZM120.438 122.406C115.031 122.406 111.578 119.297 111.578 114.062V114.016H117.922V114.047C117.922 115.844 118.875 116.859 120.344 116.859C121.828 116.859 122.594 115.922 122.594 114.125V99.4531H129.219V114.172C129.219 119.406 126.031 122.406 120.438 122.406ZM132.703 122V99.4531H142.859C148.656 99.4531 151.812 102.172 151.812 107.172V107.203C151.812 110.016 150.375 112.547 148.188 113.609L152.469 122H145.062L141.5 114.594H139.328V122H132.703ZM139.328 109.922H142.094C143.875 109.922 145.062 108.812 145.062 107.156V107.125C145.062 105.484 143.844 104.344 142.094 104.344H139.328V109.922Z" fill="#0161C0"/>
</svg>
